PathFileType	4	(X/Y/Z)	s09c0001.trc
DataRate	CameraRate	NumFrames	NumMarkers	Units	OrigDataRate	OrigDataStartFrame	OrigNumFrames
200	200	4	49	mm	200	1000	2000
Frame#	Time	racr			lacr			c7			jug			rlel			rdr			llel			ldr			s2			lic			ric			lasi			rasi			rpsi			lpsi			rgt			lgt			rth1			rth2			rth3			rth4			rlfc			rmfc			rsh1			rsh2			rsh3			rsh4			rlmal			rmmal			rcal			rtoe			rmt5			rmt1			lth1			lth2			lth4			lth3			llfc			lmfc			llmal			lmmal			lcal			lmt1			lmt5			lsh1			lsh2			lsh3			lsh4			ltoe			
		X1	Y1	Z1	X2	Y2	Z2	X3	Y3	Z3	X4	Y4	Z4	X5	Y5	Z5	X6	Y6	Z6	X7	Y7	Z7	X8	Y8	Z8	X9	Y9	Z9	X10	Y10	Z10	X11	Y11	Z11	X12	Y12	Z12	X13	Y13	Z13	X14	Y14	Z14	X15	Y15	Z15	X16	Y16	Z16	X17	Y17	Z17	X18	Y18	Z18	X19	Y19	Z19	X20	Y20	Z20	X21	Y21	Z21	X22	Y22	Z22	X23	Y23	Z23	X24	Y24	Z24	X25	Y25	Z25	X26	Y26	Z26	X27	Y27	Z27	X28	Y28	Z28	X29	Y29	Z29	X30	Y30	Z30	X31	Y31	Z31	X32	Y32	Z32	X33	Y33	Z33	X34	Y34	Z34	X35	Y35	Z35	X36	Y36	Z36	X37	Y37	Z37	X38	Y38	Z38	X39	Y39	Z39	X40	Y40	Z40	X41	Y41	Z41	X42	Y42	Z42	X43	Y43	Z43	X44	Y44	Z44	X45	Y45	Z45	X46	Y46	Z46	X47	Y47	Z47	X48	Y48	Z48	X49	Y49	Z49	
1000	5.0000	281.623108	1353.548584	380.108948	283.111511	1335.507690	-12.721144	229.499512	1402.290527	180.533234	353.410645	1351.490234	179.583511	297.036133	1093.465454	446.965851	362.360291	879.979248	577.265808	273.494202	1051.370239	-47.889057	398.649139	896.524231	-195.989487	221.190521	941.392822	184.290588	351.734711	990.986633	47.762394	339.947205	1002.886169	337.120575	409.287811	955.085999	78.987999	399.694244	966.052246	318.304993	224.787430	978.826111	243.866791	225.020966	974.957275	133.159988	325.409332	846.928589	385.518250	329.673920	836.825378	10.335419	348.509399	716.363159	381.405640	364.137878	630.867981	367.902466	332.425079	548.530945	358.443054	394.765533	629.399963	348.129211	318.901825	451.002289	334.713318	301.616882	431.005280	236.719696	278.102112	361.165833	367.889343	302.236725	274.090179	359.538269	279.207672	189.311722	361.174713	327.920044	276.907288	329.544800	276.782166	86.755417	360.318878	286.115326	93.499222	283.759460	219.167847	32.074917	318.051025	471.943085	86.072464	354.335022	388.187897	49.258732	407.099701	401.014984	39.273872	297.147339	340.082214	710.661011	8.843710	355.133728	628.938965	25.807028	390.865143	626.906006	39.682003	326.526398	543.749023	34.474743	308.678772	449.193207	46.855961	317.465149	429.051819	139.953506	268.591705	84.951637	21.749790	291.161407	96.195526	92.431046	218.699326	26.704062	68.090981	406.309448	43.961174	87.239754	381.454407	33.854252	-18.428177	277.910309	355.143677	17.353695	295.861481	270.358795	21.249430	274.407410	198.313461	14.740756	322.959351	270.778442	50.388168	472.549347	79.202217	36.481762	
1001	5.0050	281.639740	1353.545166	380.098328	283.093201	1335.489502	-12.725722	229.486771	1402.289917	180.519257	353.381775	1351.488159	179.577332	297.001343	1093.469604	446.966034	362.326752	879.959167	577.245239	273.489197	1051.331177	-47.899910	398.644653	896.509644	-196.004501	221.196655	941.395752	184.286331	351.726532	990.987610	47.754845	339.919067	1002.881165	337.146271	409.296997	955.070679	78.990227	399.711304	966.053894	318.305481	224.786743	978.821228	243.866318	225.026230	974.951111	133.159088	325.425842	846.911987	385.526276	329.673187	836.804138	10.352476	348.530548	716.363525	381.409454	364.164429	630.858459	367.897797	332.351105	548.457397	358.399445	394.774689	629.397766	348.127563	318.900269	450.994537	334.721954	301.593567	431.011322	236.718048	278.092224	361.162231	367.884613	302.210632	274.082245	359.559265	279.198212	189.321289	361.187622	327.920502	276.907928	329.544708	276.765198	86.758118	360.308411	286.153900	93.483696	283.764954	219.189011	32.050285	318.031403	471.924103	86.075974	354.332825	388.181183	49.254219	407.099884	401.011841	39.261173	297.142639	340.094208	710.648682	8.840612	355.133759	628.937927	25.808359	390.875275	626.888733	39.680519	326.525360	543.709473	34.475800	308.659180	449.103821	46.912769	317.488190	429.056976	139.943893	268.589813	84.938957	21.765575	291.169373	96.192169	92.431732	218.692474	26.711256	68.095070	406.284698	43.965736	87.230293	381.463440	33.854237	-18.409380	277.910583	355.143555	17.353895	295.812683	270.350647	21.241577	274.318085	198.314545	14.732631	322.920776	270.744263	50.381618	472.551056	79.204117	36.484913	
1002	5.0100	281.625183	1353.546875	380.107574	283.066376	1335.473022	-12.715866	229.470901	1402.281860	180.533066	353.374481	1351.479004	179.577164	296.974762	1093.470703	446.938904	362.266144	879.944458	577.238708	273.468597	1051.332886	-47.900066	398.628174	896.509644	-196.011826	221.237167	941.379150	184.327347	351.736755	990.981995	47.760399	339.943939	1002.871826	337.127106	409.278015	955.073547	78.984619	399.697388	966.047058	318.302856	224.792709	978.824097	243.862305	225.017609	974.946289	133.166290	325.442230	846.915344	385.514404	329.666779	836.819214	10.334417	348.548553	716.350098	381.415100	364.164215	630.861023	367.907837	332.343262	548.453735	358.405914	394.773773	629.400452	348.128479	318.902893	451.011078	334.724518	301.600708	431.003906	236.706543	278.100769	361.168396	367.893585	302.216675	274.069489	359.544708	279.206635	189.316055	361.181396	327.881287	276.900116	329.541962	276.781830	86.747162	360.325287	286.146210	93.487762	283.768707	219.167145	32.046711	318.029144	471.933746	86.074738	354.334991	388.187225	49.264103	407.102386	401.029388	39.259289	297.149841	340.094208	710.666321	8.846088	355.127808	628.936035	25.815695	390.898407	626.898682	39.694492	326.528534	543.716309	34.456676	308.641479	449.111511	46.918106	317.452545	429.051086	139.962769	268.584106	84.946335	21.772541	291.187195	96.195114	92.440247	218.712799	26.706650	68.091949	406.285492	43.974678	87.232124	381.409241	33.827393	-18.423544	277.906433	355.131805	17.348389	295.815674	270.344971	21.245562	274.318909	198.309357	14.780494	322.941345	270.767822	50.352627	472.556244	79.196037	36.458527	
1003	5.0150	281.613312	1353.543579	380.092529	283.031830	1335.460938	-12.713370	229.485443	1402.279663	180.521255	353.373871	1351.473022	179.566742	296.957794	1093.453613	446.938477	362.224854	879.929260	577.234863	273.473480	1051.307007	-47.886353	398.615814	896.500000	-195.999817	221.239227	941.378052	184.332611	351.732208	990.987366	47.749706	339.953308	1002.882507	337.121399	409.281586	955.058594	78.968506	399.714417	966.052429	318.297760	224.810959	978.819458	243.871368	225.042984	974.929260	133.152924	325.447540	846.919189	385.530548	329.671722	836.817322	10.347831	348.541443	716.353760	381.426117	364.175934	630.854797	367.901703	332.303864	548.394897	358.417694	394.800598	629.378784	348.112122	318.918854	451.005096	334.733582	301.592987	431.010559	236.718521	278.108734	361.167603	367.902222	302.234314	274.091766	359.548462	279.209778	189.327454	361.189850	327.922028	276.909637	329.547638	276.771240	86.747360	360.315674	286.138885	93.481140	283.782623	219.189209	32.049557	318.031219	471.852936	86.270744	354.437103	388.209961	49.259258	407.115479	400.996765	39.268929	297.122437	340.091431	710.656555	8.843139	355.124420	628.936279	25.796423	390.881104	626.897461	39.690651	326.543976	543.709412	34.471821	308.661713	449.192352	46.856819	317.452484	429.042908	139.961823	268.586151	84.955307	21.767334	291.190338	96.185570	92.446640	218.709641	26.724548	68.099762	406.293121	43.985222	87.240257	381.418274	33.827377	-18.404745	277.903076	355.145081	17.342102	295.831329	270.366058	21.231693	274.365479	198.319382	14.705006	322.923523	270.763672	50.384514	472.532013	79.148140	36.479305	
